<svg class="svg-icon" style="width: 1em; height: 1em;vertical-align: middle;fill: currentColor;overflow: hidden;" viewBox="0 0 1024 1024" version="1.1" xmlns="http://www.w3.org/2000/svg"><path d="M810.666667 170.666667h-178.346667c-24.32-66.56-97.706667-100.693333-162.986667-76.8-36.693333 12.8-64 40.96-77.653333 76.8H213.333333a85.333333 85.333333 0 0 0-85.333333 85.333333v597.333333a85.333333 85.333333 0 0 0 85.333333 85.333334h597.333334a85.333333 85.333333 0 0 0 85.333333-85.333334V256a85.333333 85.333333 0 0 0-85.333333-85.333333m-298.666667 0a42.666667 42.666667 0 0 1 42.666667 42.666666 42.666667 42.666667 0 0 1-42.666667 42.666667 42.666667 42.666667 0 0 1-42.666667-42.666667 42.666667 42.666667 0 0 1 42.666667-42.666666m-85.333333 554.666666H341.333333v-298.666666H213.333333l170.666667-170.666667 170.666667 170.666667h-128v298.666666m213.333333 128l-170.666667-170.666666h128V384h85.333334v298.666667h128l-170.666667 170.666666z" fill="" /></svg>