<svg xmlns="http://www.w3.org/2000/svg" style="width: 1em; height: 1em; vertical-align: middle; fill: currentcolor;" version="1.1" width="1024" height="1024"><rect id="backgroundrect" width="100%" height="100%" x="0" y="0" fill="none" stroke="none"/><g class="currentLayer" style=""><title>Layer 1</title><path d="M864 736C846.336 736 832 721.664 832 704L832 160 352 160C334.32 160 320 145.664 320 128 320 110.336 334.32 96 352 96L832 96C867.344 96 896 124.656 896 160L896 704C896 721.664 881.68 736 864 736ZM704 352 704 864C704 899.344 675.344 928 640 928L192 928C156.656 928 128 899.344 128 864L128 352C128 316.656 156.656 288 192 288L640 288C675.344 288 704 316.656 704 352ZM192 864 640 864 640 352 192 352 192 864Z" id="svg_1" class="selected" fill="#ffffff" fill-opacity="1"/></g></svg>